<svg xmlns="http://www.w3.org/2000/svg" xmlns:xlink="http://www.w3.org/1999/xlink" xmlns:svgjs="http://svgjs.com/svgjs" id="SvgjsSvg1001" version="1.1" viewBox="0 48.76 288 190.48"><defs id="SvgjsDefs1002"/><g id="SvgjsG1008" transform="matrix(1,0,0,1,0,0)"><svg xmlns="http://www.w3.org/2000/svg" viewBox="0 0 131.39 86.9" width="288" height="288"><rect width="131.39" height="86.9" fill="#ffffff" opacity="0" class="colorfff svgShape"/><rect width="34.66" height="56.61" x="48.37" y="15.14" fill="#efefef" class="colorff5f00 svgShape"/><path fill="#707070" d="M51.94,43.45a35.94,35.94,0,0,1,13.75-28.3,36,36,0,1,0,0,56.61A35.94,35.94,0,0,1,51.94,43.45Z" class="coloreb001b svgShape"/><path fill="#707070" d="M120.5 65.76V64.6H121v-.24h-1.19v.24h.47v1.16zm2.31 0v-1.4h-.36l-.42 1-.42-1h-.36v1.4h.26V64.7l.39.91h.27l.39-.91v1.06zM123.94 43.45a36 36 0 01-58.25 28.3 36 36 0 000-56.61 36 36 0 0158.25 28.3z" class="colorf79e1b svgShape"/></svg></g></svg>