<svg xmlns="http://www.w3.org/2000/svg" xmlns:xlink="http://www.w3.org/1999/xlink" xmlns:svgjs="http://svgjs.com/svgjs" id="SvgjsSvg1001" version="1.1" viewBox="0 99.67 288 88.66"><defs id="SvgjsDefs1002"/><g id="SvgjsG1008" transform="matrix(1,0,0,1,0,0)"><svg xmlns="http://www.w3.org/2000/svg" enable-background="new 0 0 47.834 47.834" viewBox="0 0 47.834 47.834" width="288" height="288"><polygon points="19.153 16.799 16.722 31.065 20.61 31.065 23.043 16.799" fill="#0a1931" class="color000 svgShape"/><path d="M13.462,16.815l-3.808,9.729l-0.406-1.469c-0.751-1.77-2.883-4.312-5.386-5.914l3.482,11.897l4.114-0.007l6.123-14.239    L13.462,16.815z" fill="#0a1931" class="color000 svgShape"/><path d="M7.772 17.836c-.226-.869-.881-1.128-1.694-1.159H.05L0 16.961c4.691 1.138 7.795 3.88 9.083 7.177L7.772 17.836zM30.923 19.534c1.272-.02 2.194.258 2.91.546l.351.165.526-3.092c-.77-.289-1.977-.599-3.483-.599-3.842 0-6.55 1.935-6.571 4.708-.025 2.049 1.929 3.193 3.405 3.876 1.515.7 2.023 1.145 2.016 1.77-.012.955-1.208 1.393-2.325 1.393-1.557 0-2.384-.215-3.661-.747l-.501-.228-.547 3.193c.91.399 2.589.742 4.332.76 4.087 0 6.743-1.912 6.771-4.875.017-1.621-1.02-2.858-3.267-3.873-1.36-.662-2.192-1.102-2.184-1.77C28.695 20.168 29.401 19.534 30.923 19.534zM44.688 16.815h-3.004c-.933 0-1.627.254-2.037 1.184l-5.773 13.074h4.083c0 0 .666-1.758.817-2.143.447 0 4.414.006 4.979.006.116.498.474 2.137.474 2.137h3.607L44.688 16.815zM39.893 26.01c.32-.819 1.549-3.987 1.549-3.987-.021.039.317-.825.518-1.362l.262 1.23c0 0 .745 3.406.901 4.119H39.893z" fill="#0a1931" class="color000 svgShape"/></svg></g></svg>